<svg xmlns="http://www.w3.org/2000/svg" width="360" height="360" viewBox="0 0 48 48"><path fill="#EFEFEF" d="M34.535 27.326L26.3 24.664a2.47 2.47 0 0 0-1.012-2.454l4.5-13.918a.75.75 0 0 0-1.427-.46l-4.5 13.925a2.48 2.48 0 0 0-2.363 1.71A2.486 2.486 0 0 0 23.1 26.6c.905.293 1.85.03 2.488-.59l8.486 2.744a.75.75 0 0 0 .46-1.428z"/><path fill="#EFEFEF" d="M24.083 45.625c-2.273 0-4.534-.358-6.718-1.064C5.96 40.874-.33 28.64 3.34 17.29 6.234 8.337 14.52 2.324 23.958 2.324c2.274 0 4.534.358 6.718 1.064C36.2 5.174 40.7 8.994 43.348 14.144c2.65 5.15 3.13 11.017 1.35 16.516-2.892 8.95-11.177 14.965-20.615 14.965zm-.125-41.8c-8.785 0-16.498 5.596-19.19 13.925C1.352 28.313 7.21 39.7 17.826 43.133a20.31 20.31 0 0 0 6.256.992c8.786 0 16.497-5.597 19.19-13.926 1.654-5.118 1.207-10.576-1.258-15.37-2.466-4.794-6.657-8.35-11.8-10.014a20.297 20.297 0 0 0-6.256-.99z"/></svg>